HIERARCHY
ROOT Hips
{
    OFFSET 0.000000 0.000000 0.000000
    CHANNELS 6 Xposition Yposition Zposition Zrotation Xrotation Yrotation
    JOINT Spine
    {
        OFFSET -0.000000 8.079700 0.000000
        CHANNELS 3 Zrotation Xrotation Yrotation
        JOINT Spine1
        {
            OFFSET -0.000000 23.289207 0.000000
            CHANNELS 3 Zrotation Xrotation Yrotation
            JOINT Neck
            {
                OFFSET -0.000000 23.193563 2.108506
                CHANNELS 3 Zrotation Xrotation Yrotation
                JOINT Head
                {
                    OFFSET -0.000000 13.794610 -1.970658
                    CHANNELS 3 Zrotation Xrotation Yrotation
                    End Site
                    {
                        OFFSET -0.000000 24.633232 0.000000
                    }
                }
            }
            JOINT LeftShoulder
            {
                OFFSET 3.964071 21.437269 -0.109506
                CHANNELS 3 Zrotation Xrotation Yrotation
                JOINT LeftArm
                {
                    OFFSET 10.889085 0.000000 0.000000
                    CHANNELS 3 Zrotation Xrotation Yrotation
                    JOINT LeftForeArm
                    {
                        OFFSET 33.323662 0.000000 0.000000
                        CHANNELS 3 Zrotation Xrotation Yrotation
                        JOINT LeftHand
                        {
                            OFFSET 25.127829 0.000000 0.000000
                            CHANNELS 3 Zrotation Xrotation Yrotation
                            End Site
                            {
                                OFFSET 14.779941 0.000000 0.000000
                            }
                        }
                    }
                }
            }
            JOINT RightShoulder
            {
                OFFSET -3.907116 21.437269 -0.109506
                CHANNELS 3 Zrotation Xrotation Yrotation
                JOINT RightArm
                {
                    OFFSET -10.889085 0.000000 0.000000
                    CHANNELS 3 Zrotation Xrotation Yrotation
                    JOINT RightForeArm
                    {
                        OFFSET -33.323662 0.000000 0.000000
                        CHANNELS 3 Zrotation Xrotation Yrotation
                        JOINT RightHand
                        {
                            OFFSET -25.127829 0.000000 0.000000
                            CHANNELS 3 Zrotation Xrotation Yrotation
                            End Site
                            {
                                OFFSET -14.779941 0.000000 0.000000
                            }
                        }
                    }
                }
            }
        }
    }
    JOINT LeftUpLeg
    {
        OFFSET 9.853293 0.000000 0.000000
        CHANNELS 3 Zrotation Xrotation Yrotation
        JOINT LeftLeg
        {
            OFFSET -0.000000 -42.191887 0.000000
            CHANNELS 3 Zrotation Xrotation Yrotation
            JOINT LeftFoot
            {
                OFFSET -0.000000 -39.359688 0.000000
                CHANNELS 3 Zrotation Xrotation Yrotation
                JOINT LeftToeBase
                {
                    OFFSET -0.000000 -6.404640 14.779941
                    CHANNELS 3 Zrotation Xrotation Yrotation
                    End Site
                    {
                        OFFSET -0.000000 0.000000 3.941317
                    }
                }
            }
        }
    }
    JOINT RightUpLeg
    {
        OFFSET -9.853293 0.000000 0.000000
        CHANNELS 3 Zrotation Xrotation Yrotation
        JOINT RightLeg
        {
            OFFSET -0.000000 -42.191887 0.000000
            CHANNELS 3 Zrotation Xrotation Yrotation
            JOINT RightFoot
            {
                OFFSET -0.000000 -39.359688 0.000000
                CHANNELS 3 Zrotation Xrotation Yrotation
                JOINT RightToeBase
                {
                    OFFSET -0.000000 -6.404640 14.779941
                    CHANNELS 3 Zrotation Xrotation Yrotation
                    End Site
                    {
                        OFFSET -0.000000 0.000000 3.941317
                    }
                }
            }
        }
    }
}
MOTION
Frames:    14
Frame Time:    0.008333
8.378079    83.245850    -1.554185    1.824185    -2.893345    -160.367584    2.151602    6.522159    -0.309045    -0.220908    5.073723    -0.176845    -8.267924    35.612885    2.028447    5.523192    27.028574    -0.057545    -1.036293    11.650581    7.895695    -54.505020    44.162182    -9.243420    0.936844    -11.584805    -21.471804    -11.144331    -11.258571    -1.593871    -1.541150    13.757851    7.465080    56.241512    40.749035    11.639692    -8.095197    -7.984306    9.422183    6.763902    -6.408306    15.477077    9.113284    8.815875    4.621982    2.139489    30.521339    -10.146580    -5.668960    -23.094660    1.158622    0.000000    0.000000    0.000000    -12.541964    -34.974876    -2.754709    8.708006    27.031591    -2.843670    -5.083804    -1.822930    -8.888979    0.000000    0.000000    0.000000    
8.508723    83.285446    -2.129353    2.091084    -3.303623    -160.327545    2.746068    6.643807    -0.358321    -0.089929    4.955607    -0.195093    -8.531148    35.438259    2.042486    5.651443    27.080706    -0.094199    -1.201421    11.625964    8.152707    -54.430531    44.166470    -9.473370    0.944284    -11.512362    -21.628311    -12.217684    -11.155001    -1.722888    -1.795345    13.635935    7.702332    55.639744    40.779869    12.190672    -8.271714    -8.017039    9.356069    6.500695    -6.478550    15.277184    9.498137    8.716568    4.486957    1.907394    30.238939    -9.824739    -5.911333    -22.355650    1.001245    0.000000    0.000000    0.000000    -12.685506    -35.685940    -3.120178    9.454136    28.078320    -3.321505    -5.629778    -1.776992    -8.591410    0.000000    0.000000    0.000000    
8.651220    83.361382    -2.732480    2.413673    -3.702236    -160.341507    3.363104    6.755164    -0.351883    0.054034    4.802087    -0.155770    -8.774259    35.460545    2.056569    5.864937    26.923828    -0.141717    -1.241722    11.781930    8.048079    -54.606873    43.999985    -9.593229    0.799243    -11.659974    -21.816641    -12.126646    -11.342040    -1.607173    -1.929220    13.529610    7.954682    55.019703    40.698223    12.552836    -8.489501    -8.174001    9.341032    6.377898    -6.620137    15.554758    9.950627    8.615949    4.540349    1.771474    29.976645    -9.369923    -6.214226    -21.387627    0.455554    0.000000    0.000000    0.000000    -12.692209    -36.311932    -3.394991    10.210293    29.009794    -2.667287    -6.349473    -1.589954    -9.441965    0.000000    0.000000    0.000000    
8.772677    83.442436    -3.358368    2.572052    -3.950487    -160.356720    3.642627    7.126532    -0.282975    0.610869    4.356163    -0.079271    -9.058724    35.951580    2.019069    6.064820    26.672001    -0.289517    -1.635027    12.142467    7.596846    -54.861893    43.708416    -9.518710    1.099799    -11.912703    -21.748558    -12.359517    -11.562840    -1.351641    -1.952595    13.601017    8.192642    54.278362    40.324329    12.691448    -8.628984    -7.876410    9.393810    6.472950    -6.295598    15.512712    10.248815    8.741194    4.703298    1.734903    29.621338    -9.040045    -6.573516    -20.411606    0.020729    0.000000    0.000000    0.000000    -12.671717    -36.627571    -2.993963    11.106592    29.673872    -2.472192    -7.089055    -1.614886    -10.429119    0.000000    0.000000    0.000000    
8.897913    83.562500    -3.959709    2.713151    -4.386621    -160.399948    3.878879    7.381779    -0.141631    0.926588    3.724292    0.078526    -8.680319    36.843807    1.759535    5.914030    26.138929    -0.521884    -1.588416    12.677941    6.858555    -55.309925    43.184925    -9.503218    0.987729    -11.989496    -21.764704    -12.659327    -11.639332    -1.515759    -1.570698    13.791487    8.482811    53.408493    39.917393    12.605528    -8.750501    -7.960593    9.478997    6.896635    -6.298016    15.643812    10.469838    8.707816    5.073830    1.727537    29.193670    -8.754096    -6.886918    -19.237123    -0.515874    0.000000    0.000000    0.000000    -12.586506    -36.993809    -2.222264    11.965528    29.977558    -2.560292    -7.812942    -1.673471    -11.446205    0.000000    0.000000    0.000000    
8.986584    83.691467    -4.583874    2.675517    -4.776949    -160.387497    3.902395    7.502813    -0.083071    1.619753    3.701822    0.120911    -9.025042    36.818344    1.644778    5.964135    26.183340    -0.720140    -1.954378    12.745804    6.573911    -55.332825    43.604286    -9.633629    0.939730    -12.356959    -21.989880    -11.889290    -12.041533    -1.348635    -1.987000    13.654323    8.453120    52.819271    39.684708    13.033331    -8.859323    -8.112320    9.528635    6.503979    -6.487935    15.700706    10.498618    8.793388    4.924397    1.546837    28.680128    -8.058701    -7.185163    -17.919760    -0.982832    0.000000    0.000000    0.000000    -12.601247    -37.248158    -1.610159    12.605002    30.379318    -2.654445    -8.524152    -1.895668    -12.347830    0.000000    0.000000    0.000000    
9.082230    83.850693    -5.194691    2.601732    -5.208669    -160.324936    3.993423    7.659570    0.011326    1.951991    3.501119    0.219409    -8.651509    36.992962    1.319036    5.647886    26.131596    -0.965862    -2.045689    12.818192    6.094771    -55.427212    43.824432    -9.711009    1.173404    -12.613576    -21.990477    -12.814379    -12.221939    -1.543362    -1.947603    13.478360    8.291483    52.232288    39.242546    13.197927    -8.769160    -8.322362    9.745105    5.944372    -6.766875    15.694108    10.473597    8.718900    5.048839    1.562246    28.383339    -7.637051    -7.414605    -16.472744    -1.459257    0.000000    0.000000    0.000000    -12.350505    -37.467010    -1.776225    12.078821    30.811056    -2.560099    -8.969658    -2.179688    -12.154830    0.000000    0.000000    0.000000    
9.177505    84.026924    -5.779952    2.425580    -5.863043    -160.174728    3.844591    7.606834    0.105597    2.341197    3.315073    0.293605    -8.506639    36.864014    1.058036    6.001339    26.747238    -1.263663    -1.757133    12.905938    5.390704    -56.004791    44.154423    -9.629384    1.318678    -12.655840    -22.207041    -11.908001    -12.285957    -1.153440    -1.691813    13.584767    8.107959    51.173283    38.765984    13.545448    -8.685887    -8.526430    10.004497    5.899747    -6.961699    15.761139    10.298885    8.382982    4.957600    1.459590    28.096485    -6.967927    -7.830094    -14.921629    -1.953750    0.000000    0.000000    0.000000    -12.341011    -37.876690    -2.370670    11.271635    31.351555    -2.425542    -9.315976    -2.557670    -11.611563    0.000000    0.000000    0.000000    
9.272496    84.217766    -6.379641    2.203851    -6.441725    -159.925934    3.866305    7.764423    0.080475    2.333051    2.844715    0.285243    -7.684964    37.237759    0.580038    5.480004    26.692987    -1.567094    -1.588703    13.292722    5.051980    -55.933804    44.453590    -10.184264    1.634890    -12.982505    -21.927393    -12.880523    -12.474041    -1.814332    -1.098718    13.543314    8.018642    50.454048    38.459042    13.447695    -8.906920    -8.413321    10.146099    5.958356    -6.811294    15.731517    10.144423    8.084245    4.735742    1.322854    27.867950    -6.453508    -7.856178    -13.329642    -2.269025    0.000000    0.000000    0.000000    -12.373814    -38.040512    -2.524439    10.635242    31.555468    -2.977641    -9.455753    -3.046831    -10.853357    0.000000    0.000000    0.000000    
9.342894    84.420433    -6.929463    1.923960    -7.124805    -159.522049    3.748613    7.628622    -0.055047    2.693240    2.870659    0.127760    -7.754363    37.142242    0.424729    5.565556    26.725134    -1.745736    -1.539096    13.277192    4.756187    -55.960590    44.825329    -10.429035    1.511596    -12.943955    -22.349482    -12.258425    -12.464205    -1.801365    -1.348788    13.471002    7.973059    49.988533    37.785854    13.840676    -8.895254    -8.718064    10.373399    5.417718    -7.168549    15.862964    9.892494    7.463850    4.910220    1.463803    27.922962    -6.593926    -7.930627    -11.707838    -2.508081    0.000000    0.000000    0.000000    -12.741294    -38.199219    -2.586983    10.306201    31.579683    -4.255844    -9.505309    -3.590833    -9.744142    0.000000    0.000000    0.000000    
9.416629    84.643852    -7.443992    1.654010    -7.858277    -159.145432    3.694199    7.506265    -0.176924    2.817526    2.699087    -0.000518    -7.378316    37.121674    0.206681    5.371014    26.975054    -1.885458    -1.553588    13.505648    4.417888    -55.771793    45.050030    -10.957710    1.892699    -12.970954    -22.232862    -12.682980    -12.417749    -1.758278    -1.207886    13.485502    7.952203    49.330704    37.005356    14.085770    -8.786995    -8.875303    10.609924    5.141035    -7.351116    15.977725    9.595569    6.780182    4.682045    1.457948    28.013334    -6.193860    -8.121827    -10.155599    -2.942659    0.000000    0.000000    0.000000    -13.174853    -38.420319    -2.544454    10.181162    31.584597    -5.220795    -9.670238    -3.927248    -9.202084    0.000000    0.000000    0.000000    
9.478203    84.868393    -7.984588    1.444641    -8.582875    -158.740738    3.778066    7.308505    -0.318746    2.895358    2.611187    -0.143054    -8.037713    37.432072    0.291996    6.343378    26.454174    -2.029765    -1.495750    13.523945    4.087993    -55.625511    45.576054    -11.144306    1.834726    -13.135097    -22.796497    -12.545904    -12.614207    -1.498268    -1.156970    13.350256    7.703935    48.709511    36.704334    14.490231    -8.889871    -8.982422    10.697177    4.880004    -7.468227    16.221586    9.430714    6.048878    4.334065    1.199369    28.202705    -5.808706    -8.001140    -8.679671    -2.875987    0.000000    0.000000    0.000000    -13.635740    -38.587975    -2.536502    10.188827    31.611311    -5.409218    -9.945290    -4.248436    -9.498412    0.000000    0.000000    0.000000    
9.526627    85.108002    -8.512471    1.196069    -9.332013    -158.275391    3.845815    7.152833    -0.503952    2.834145    2.333366    -0.321032    -6.641019    37.269428    -0.281279    4.866657    27.047552    -2.201226    -1.222399    13.697843    3.667194    -55.829090    45.855469    -11.328139    2.158772    -13.165368    -22.942875    -12.386582    -12.597206    -1.335927    -0.852731    13.426225    7.825395    48.219032    35.686954    14.439919    -8.853133    -8.850620    11.067025    4.168439    -7.416790    16.076027    9.182392    5.218330    4.251801    1.266227    28.553696    -5.954321    -8.218369    -7.210882    -2.974973    0.000000    0.000000    0.000000    -14.277247    -38.752972    -2.944839    10.129265    31.786787    -4.653887    -10.265492    -4.512205    -10.464931    0.000000    0.000000    0.000000    
9.606091    85.359406    -9.023460    1.072944    -9.865769    -157.871185    4.005013    7.214041    -0.631413    2.918623    2.009357    -0.430068    -7.034291    37.920074    -0.314687    5.733174    26.249136    -2.413944    -1.205571    14.137652    3.398148    -55.480972    45.858124    -12.034254    2.397043    -13.278859    -23.026796    -13.317718    -12.567685    -2.069219    -0.639606    13.283851    7.907697    47.785870    35.599499    14.253603    -9.167122    -8.915454    11.279037    3.926710    -7.470482    16.015266    9.191718    4.532401    4.027679    0.860023    28.805471    -5.120836    -8.129634    -5.766591    -3.442491    0.000000    0.000000    0.000000    -14.680906    -38.774406    -2.823117    10.447238    31.856590    -4.093126    -10.643673    -4.550742    -11.770580    0.000000    0.000000    0.000000    
